PathFileType	4	(X/Y/Z)	C:/Users/beibeiliu/ov580/test_trc/User3\sequence.40_training_dense_right.trc
DataRate	CameraRate	NumFrames	NumMarkers	Units	OrigDataRate	OrigDataStartFrame	OrigNumFrames
120	120	20	19	mm	120	180	287
Frame#	Time	ThumbCMC			ThumbMCP			ThumbIP			ThumbTip			IndexMCP			IndexPIP			IndexTip			MiddleMCP			MiddlePIP			MiddleTip			RingMCP			RingPIP			RingTip			PinkyMCP			PinkyPIP			PinkyTip			BackHand1			BackHand2			BackHand3	
		X0	Y0	Z0	X1	Y1	Z1	X2	Y2	Z2	X3	Y3	Z3	X4	Y4	Z4	X5	Y5	Z5	X6	Y6	Z6	X7	Y7	Z7	X8	Y8	Z8	X9	Y9	Z9	X10	Y10	Z10	X11	Y11	Z11	X12	Y12	Z12	X13	Y13	Z13	X14	Y14	Z14	X15	Y15	Z15	X16	Y16	Z16	X17	Y17	Z17	X18	Y18	Z18	
179	1.49167	135.249	-9.00157	28.7774	108.981	-1.01231	5.6626	89.7134	0.714511	-14.5408	70.9535	-7.21532	-30.8011	133.434	-34.7466	-44.7811	121.618	-23.0569	-67.2599	101.362	-17.9832	-80.0646	120.804	-52.2856	-41.2681	97.1383	-41.5836	-61.6371	69.0801	-16.649	-55.9782	107.65	-66.9595	-31.8034	88.9923	-55.1961	-53.3179	64.3709	-34.3806	-52.1712	101.363	-76.4955	-14.475	90.3076	-78.0429	-33.7192	68.6576	-66.3228	-50.2527	130.459	-70.6459	20.5691	134.458	-70.5129	50.2486	154.088	-44.6683	27.6143	
180	1.5	135.142	-10.4979	31.398	109.955	1.74552	8.6168	89.308	0.51749	-16.4005	69.7629	-2.41695	-32.0132	135.51	-34.8965	-39.2275	120.155	-27.581	-67.2756	104.268	-16.5867	-84.5559	117.758	-50.219	-42.3662	95.421	-35.4405	-59.9266	67.4344	-12.943	-48.9892	112.049	-63.3097	-31.1484	87.4173	-56.9148	-54.0531	66.8906	-38.698	-55.4857	102.606	-77.0075	-8.6339	92.0707	-81.6022	-33.789	72.2005	-72.4903	-50.5151	130.679	-73.227	17.2736	137.262	-71.7321	51.6455	155.175	-45.6122	28.5086	
181	1.50833	134.974	-9.26246	29.5252	109.647	1.56629	5.7232	90.0009	3.09317	-14.4416	71.1979	-5.05684	-30.1977	137.425	-32.6563	-41.0106	122.249	-26.4656	-67.9317	106.253	-18.5171	-83.8525	118.705	-51.6258	-40.2234	94.6651	-35.9342	-59.6803	69.2657	-8.76449	-48.2736	110.801	-68.2699	-29.3709	90.3973	-60.588	-53.6525	71.0345	-38.643	-59.2738	102.829	-80.5036	-10.6518	94.528	-82.138	-34.2948	80.1789	-78.0383	-52.1489	134.56	-68.3165	20.3817	138.606	-69.5751	47.9741	152.891	-44.302	28.8625	
182	1.51667	136.667	-6.828	30.0735	110.989	1.7355	8.49348	88.9038	2.69429	-20.4302	70.6191	-5.41948	-33.8574	138.011	-32.2496	-44.7302	124.021	-27.8407	-67.7901	107.373	-20.5676	-83.5728	121.501	-50.0479	-40.4295	96.9646	-38.9108	-59.8037	70.3818	-8.03394	-49.1621	115.249	-65.6994	-29.3373	93.7659	-61.9803	-55.8954	68.9934	-42.7075	-60.064	105.571	-80.8264	-11.2283	97.6819	-82.9461	-34.4383	84.3979	-80.4324	-53.2064	134.67	-70.281	16.473	136.014	-70.8171	50.2496	156.847	-44.0232	27.4057	
183	1.525	136.239	-10.1156	30.4214	110.799	1.08811	5.34713	91.6977	5.21937	-18.6015	72.4906	-1.86265	-34.7674	138.062	-34.9232	-39.984	126.396	-25.0285	-67.1284	110.663	-16.5766	-84.9837	120.121	-52.9964	-41.1513	96.6268	-38.2449	-62.8011	70.5294	-12.9246	-51.013	114.277	-68.2573	-34.1984	95.3981	-61.022	-57.703	73.7381	-42.6606	-63.4036	102.843	-80.5771	-7.71134	96.4437	-86.1153	-33.1293	83.0164	-78.693	-56.6736	133.88	-70.7676	17.7471	136.553	-70.186	50.2303	156.187	-43.4065	25.5846	
184	1.53333	137.879	-8.20628	26.873	112.83	-0.155536	3.18249	93.0897	5.55026	-20.2205	75.7223	-1.29238	-34.0776	138.344	-32.445	-43.8083	123.124	-25.0913	-69.3975	105.193	-16.0453	-83.2722	120.796	-54.2913	-43.9558	100.411	-43.8887	-63.3772	71.3375	-14.53	-59.9563	115.261	-66.9877	-31.0481	99.6018	-61.3062	-58.3427	73.5965	-44.1291	-64.8023	104.225	-77.3009	-8.44908	94.0327	-88.5516	-32.2308	79.2236	-82.8324	-52.7199	132.933	-68.1925	18.4122	138.376	-68.1167	46.2587	154.455	-43.834	26.4028	
185	1.54167	138.177	-8.81898	30.1009	115.174	5.53404	6.11354	95.9051	5.78127	-17.4119	77.0912	2.59811	-34.7024	135.463	-32.9921	-44.9686	121.144	-24.3209	-66.7302	93.6018	-9.19393	-77.0793	123.717	-52.9099	-46.718	99.7723	-44.0389	-66.5474	75.2739	-20.6567	-67.2263	114.925	-68.893	-34.649	100.545	-67.3443	-55.4313	77.971	-46.2655	-67.9658	104.739	-76.5696	-8.17146	95.3671	-85.7503	-34.5441	78.5739	-81.052	-51.538	132.954	-68.711	15.8647	136.348	-68.3318	50.6354	156.081	-43.1949	27.885	
186	1.55	138.448	-7.9829	32.3468	115.72	4.72231	5.63532	97.4476	5.54262	-19.7684	80.1865	4.50679	-36.0107	134.089	-31.4514	-40.6718	112.05	-19.594	-62.7824	87.0596	-3.64678	-63.1093	125.356	-53.0586	-42.4328	106.451	-45.5337	-67.0375	73.6478	-22.0734	-72.785	116.173	-70.3832	-32.4644	101.775	-67.0056	-55.3123	79.792	-49.3007	-68.6535	103.654	-81.4915	-9.88529	97.1238	-81.5165	-34.2003	81.5091	-76.5666	-52.9381	134.103	-67.8973	19.3722	138.096	-70.4374	49.3723	156.284	-43.6354	23.3459	
187	1.55833	137.593	-7.71619	33.8301	115.114	1.10439	5.68403	97.9907	8.32271	-17.3805	81.4421	7.01511	-36.0389	128.994	-33.034	-38.256	105.094	-15.7591	-60.2079	81.5545	-1.86655	-54.7298	123.763	-53.2507	-41.627	103.509	-42.8378	-69.0296	73.2487	-25.449	-74.8558	117.818	-68.4671	-32.6049	105.398	-65.5309	-55.7251	78.4452	-50.3314	-70.6974	102.946	-81.0726	-12.1421	91.8558	-82.6724	-35.6378	75.8605	-73.9818	-54.831	133.233	-71.3326	20.908	138.784	-69.5244	46.8503	154.732	-42.3373	24.2757	
188	1.56667	136.556	-8.12015	34.1764	115.729	6.42624	7.16439	98.1244	6.51202	-20.2325	81.5371	6.24269	-36.5072	128.005	-30.3315	-40.674	102.259	-16.839	-56.7647	80.0876	-1.03211	-51.7728	124.268	-53.3409	-44.2221	104.56	-49.9898	-65.5904	73.04	-27.9654	-77.3544	117.725	-66.5993	-30.3232	103.508	-67.9807	-55.178	77.9129	-54.38	-70.9708	103.446	-75.8902	-9.99081	92.5739	-79.0399	-35.6132	74.6957	-70.3714	-54.6224	131.62	-68.9761	23.0318	139.061	-68.2268	46.3801	153.314	-45.0232	29.6758	
189	1.575	136.971	-5.03103	30.5718	115.731	4.83149	3.92001	97.4792	8.23586	-22.6724	81.5816	3.42927	-37.4162	129.433	-30.2147	-37.2393	104.723	-15.2719	-58.3127	83.7773	1.7182	-53.6399	125.023	-54.0306	-43.1541	105.828	-45.6307	-70.3875	78.8814	-29.2199	-80.3886	116.683	-67.368	-32.7297	104.073	-65.1911	-56.5342	78.5794	-56.1773	-69.9903	99.7196	-77.984	-7.21323	91.0191	-76.5129	-35.3199	74.0948	-69.7217	-50.2409	131.522	-70.6581	22.3342	138.581	-67.4055	49.4041	153.927	-41.1256	27.9613	
190	1.58333	137.402	-5.99371	35.1225	115.981	3.49261	4.98888	99.2483	8.5954	-18.722	82.5287	4.75636	-38.9903	130.785	-30.5185	-39.5709	108.197	-18.5349	-59.3704	83.4005	-0.197144	-56.3364	125.754	-54.1119	-39.2677	104.921	-47.7526	-68.601	76.034	-28.9964	-78.5358	116.13	-67.1119	-32.4692	103.649	-65.7825	-55.354	77.1604	-52.1753	-71.6349	102.317	-74.2038	-7.27548	91.1842	-78.2728	-33.3156	72.8249	-70.4225	-49.4982	129.637	-70.3521	20.1543	137.601	-67.2362	52.0666	155.082	-40.7623	27.9353	
191	1.59167	136.492	-8.73617	30.245	116.029	2.01692	9.42636	98.3166	9.82468	-21.4354	83.7934	10.2241	-35.0976	128.503	-34.6051	-40.6243	110.494	-22.8232	-60.6969	89.4613	-4.5844	-62.5399	123.155	-55.2101	-43.9958	106.083	-47.6974	-66.8746	77.4668	-24.2979	-74.458	115.481	-69.0992	-27.6115	102.76	-64.7491	-55.1245	78.9465	-48.4198	-68.1595	101	-79.2029	-7.62456	89.3106	-82.5356	-32.0804	74.9196	-69.0976	-51.9465	133.875	-68.5809	20.5585	137.656	-65.998	50.3246	151.509	-44.3402	25.7245	
192	1.6	137.723	-7.60091	30.7312	115.002	6.06512	6.63068	98.4362	6.36921	-19.2974	82.403	9.33407	-34.6347	133.725	-32.5645	-39.9967	113.315	-27.3932	-59.917	87.7547	-6.17861	-64.7803	122.701	-55.2116	-42.6178	103.317	-42.7939	-65.9027	75.3914	-18.85	-67.7575	116.535	-67.3299	-32.0274	100.34	-66.3388	-53.8966	77.3615	-42.8999	-65.5243	104.887	-76.6768	-9.17598	93.4047	-83.6839	-33.1295	75.8607	-76.4874	-50.0736	131.183	-68.5325	21.2296	137.558	-66.7045	46.9949	155.13	-43.034	30.15	
193	1.60833	136.479	-8.98265	34.7125	112.655	3.11947	4.28156	96.4772	8.91224	-14.5767	79.429	7.23525	-34.5115	135.941	-33.5405	-37.2546	117.376	-25.6027	-62.1364	91.9821	-5.7174	-67.8749	123.359	-51.6276	-43.442	104.779	-41.4204	-63.8802	76.3452	-16.1881	-59.256	117.032	-68.0775	-27.0325	101.891	-61.1827	-56.0449	76.2528	-41.0986	-62.7586	102.832	-79.8597	-4.74479	95.5821	-85.997	-34.0434	78.4765	-77.1544	-52.6047	131.29	-72.3641	18.5436	136.243	-70.8099	51.4034	154.568	-43.6152	30.7077	
194	1.61667	136.931	-6.3722	32.9901	112.53	4.65492	5.83036	94.8673	7.95215	-18.3745	78.4248	3.76739	-32.6742	134.904	-35.0987	-40.6939	118.541	-24.5435	-64.2455	94.402	-12.0344	-69.6789	122.45	-52.8885	-44.4568	99.345	-40.6824	-62.4987	74.3226	-14.9294	-52.968	117.904	-67.3391	-30.094	101.632	-63.7462	-54.392	76.6845	-44.898	-59.6708	109.246	-77.6583	-9.8058	99.7597	-86.8121	-30.2985	88.166	-77.7076	-52.2669	132.392	-68.8308	17.9641	138.335	-69.9197	48.8805	156.013	-43.1214	27.2585	
195	1.625	136.314	-9.60728	31.1299	112.345	1.10223	5.29748	95.2701	6.13888	-15.2484	78.6626	-0.480437	-32.4576	136.637	-33.3395	-40.9904	121.988	-23.3627	-65.3827	97.3487	-6.09362	-74.2625	125.967	-48.4679	-44.5723	101.536	-35.524	-62.6472	75.0742	-15.9946	-50.0472	117.555	-68.1051	-31.6049	103.079	-63.1401	-54.8578	77.9056	-41.5644	-59.3489	109.493	-79.4968	-9.48446	100.697	-87.3995	-31.4131	89.4584	-76.226	-56.6013	134.429	-65.8735	20.7886	136.766	-68.8089	48.7475	154.175	-43.4792	29.5023	
196	1.63333	136.545	-8.722	32.8406	113.201	1.24472	5.48595	96.1007	5.7155	-15.6432	79.1273	4.43275	-33.8495	139.121	-32.7933	-42.3369	123.407	-23.7388	-64.7111	101.417	-8.1298	-76.0337	125.161	-48.925	-45.4645	101.588	-35.3817	-63.2935	74.6533	-11.082	-47.3613	121.425	-65.3438	-31.7432	102.25	-62.4469	-56.3449	77.6811	-41.5527	-58.9031	110.41	-75.9092	-9.63861	100.698	-84.9619	-36.6336	87.1797	-81.1054	-55.2386	133.448	-72.2243	18.1941	136.017	-69.6628	51.5282	153.836	-44.3443	28.4044	
197	1.64167	137.205	-8.27723	34.5356	114.186	3.78506	4.15128	97.6619	8.81436	-18.3431	80.7541	4.55942	-31.0691	139.903	-31.9115	-39.558	122.117	-22.8889	-66.0788	101.91	-12.0921	-74.6572	129.355	-47.8661	-41.6727	107.182	-36.0622	-63.7434	75.1181	-11.5743	-48.9636	122.06	-63.1882	-31.9885	101.578	-59.9255	-56.8752	81.4146	-39.2192	-60.8915	107.959	-78.9512	-7.44822	101.368	-83.505	-36.8032	88.5613	-74.3115	-54.7864	133.608	-68.5118	17.5452	138.853	-66.2039	51.2772	158.123	-42.1458	27.9952	
198	1.65	137.885	-8.20878	34.5078	116.262	4.09821	10.8437	98.7237	10.7015	-15.6972	80.0447	9.7891	-34.8375	143.116	-29.2127	-37.7803	123.018	-22.1467	-64.6532	101.43	-5.15536	-76.7547	126.62	-50.358	-42.393	107.314	-32.425	-65.0817	77.9593	-10.3828	-55.4534	120.188	-64.0594	-30.4016	103.059	-57.4864	-57.9723	83.3166	-38.43	-61.0053	109.696	-77.3355	-10.0323	99.7224	-82.2934	-36.6697	86.2946	-74.7605	-53.8588	134.599	-67.1678	20.4442	140.779	-66.8137	46.439	155.562	-43.0024	30.0502	
